<svg width="162" height="24" viewBox="0 0 162 24" fill="none" xmlns="http://www.w3.org/2000/svg">
<g clip-path="url(#clip0_1_57)">
<g clip-path="url(#clip1_1_57)">
<mask id="mask0_1_57" style="mask-type:luminance" maskUnits="userSpaceOnUse" x="0" y="0" width="25" height="24">
<path d="M12.4613 0H12.4612C5.85021 0 0.49091 5.3593 0.49091 11.9703V11.9704C0.49091 18.5814 5.85021 23.9407 12.4612 23.9407H12.4613C19.0723 23.9407 24.4316 18.5814 24.4316 11.9704V11.9703C24.4316 5.3593 19.0723 0 12.4613 0Z" fill="white"/>
</mask>
<g mask="url(#mask0_1_57)">
<path d="M12.4613 0H12.4612C5.85021 0 0.49091 5.3593 0.49091 11.9703V11.9704C0.49091 18.5814 5.85021 23.9407 12.4612 23.9407H12.4613C19.0723 23.9407 24.4316 18.5814 24.4316 11.9704V11.9703C24.4316 5.3593 19.0723 0 12.4613 0Z" fill="#205DFF"/>
<path d="M-2.32564 4.22511H6.69255C9.12314 4.22511 11.4542 5.11506 13.1729 6.69967C14.8915 8.28428 15.857 10.4335 15.857 12.6744C15.857 14.9154 14.8915 17.0646 13.1729 18.6493C11.4542 20.2339 9.12314 21.1241 6.69255 21.1241H-2.32363V19.3765L-2.32564 16.0073L6.69255 15.9939C7.64745 15.9939 8.56324 15.6441 9.23843 15.0216C9.91366 14.399 10.2929 13.5547 10.2929 12.6743C10.2929 11.7939 9.91366 10.9495 9.23843 10.3269C8.56324 9.70442 7.64745 9.35468 6.69255 9.35468L5.93271 9.35651L-2.32564 9.40137V7.61533L6.69382 7.57074C8.16192 7.57074 9.56985 8.10847 10.6079 9.06559C11.6461 10.0227 12.2293 11.3209 12.2293 12.6744C12.2293 14.028 11.6461 15.3262 10.6079 16.2833C9.56985 17.2405 8.16192 17.7782 6.69382 17.7782H0.0870395V19.3765H6.69255C8.62085 19.3765 10.4701 18.6702 11.8335 17.4131C13.197 16.156 13.9631 14.4509 13.9631 12.673C13.9631 10.8952 13.197 9.19012 11.8335 7.933C10.4701 6.67588 8.62085 5.96963 6.69255 5.96963H-2.32363L-2.32564 4.22511Z" fill="white"/>
</g>
<path d="M37.9848 3.6897C39.0514 4.71116 39.5846 5.988 39.5846 7.5202C39.5846 9.05241 39.0514 10.3368 37.9848 11.3733C36.9183 12.3947 35.5814 12.9055 33.9741 12.9055H31.9236V18.133H28.6564V2.13497H33.9741C35.5814 2.13497 36.9183 2.65321 37.9848 3.6897ZM35.7315 9.18759C36.1822 8.75197 36.4075 8.19618 36.4075 7.5202C36.4075 6.84423 36.1822 6.28844 35.7315 5.85281C35.2809 5.41719 34.68 5.19936 33.929 5.19936H31.9236V9.84105H33.929C34.68 9.84105 35.2809 9.62321 35.7315 9.18759Z" fill="#11161E"/>
<path d="M44.4964 18.3808C43.1594 18.3808 42.1154 17.9302 41.3643 17.0289C40.6282 16.1276 40.2602 14.9184 40.2602 13.4012V6.86679H43.3472V12.8829C43.3472 14.6705 43.9856 15.5643 45.2623 15.5643C45.9836 15.5643 46.5469 15.2939 46.9523 14.7531C47.3729 14.2123 47.5833 13.4162 47.5833 12.3647V6.86679H50.6701V18.133H47.5833V16.8486C46.8921 17.8701 45.8631 18.3808 44.4964 18.3808Z" fill="#11161E"/>
<path d="M52.5155 18.133V6.86679H55.6023V8.66937C55.7978 8.11357 56.1508 7.65539 56.6614 7.29487C57.1872 6.91933 57.7654 6.73156 58.3964 6.73156C58.7869 6.73156 59.1325 6.77664 59.4327 6.86679V9.99879C58.937 9.83354 58.4714 9.75094 58.0359 9.75094C57.2998 9.75094 56.7063 10.0213 56.2556 10.5621C55.8201 11.0878 55.6023 11.8164 55.6023 12.7477V18.133H52.5155Z" fill="#11161E"/>
<path d="M64.4566 18.3808C62.9695 18.3808 61.7149 17.8025 60.6938 16.6458C59.6723 15.4892 59.1613 14.1072 59.1613 12.4999C59.1613 10.8926 59.6723 9.51059 60.6938 8.35392C61.7149 7.19725 62.9695 6.61889 64.4566 6.61889C65.1775 6.61889 65.8233 6.76913 66.3945 7.06957C66.9652 7.37001 67.4007 7.72298 67.7014 8.12858V1.23367H70.7882V18.133H67.7014V16.8712C67.4007 17.2767 66.9652 17.6297 66.3945 17.9302C65.8233 18.2306 65.1775 18.3808 64.4566 18.3808ZM63.0371 14.708C63.5629 15.2789 64.2537 15.5643 65.1098 15.5643C65.9664 15.5643 66.6497 15.2789 67.1603 14.708C67.6861 14.1372 67.9492 13.4012 67.9492 12.4999C67.9492 11.5986 67.6861 10.8625 67.1603 10.2917C66.6497 9.72087 65.9664 9.43545 65.1098 9.43545C64.2537 9.43545 63.5629 9.72087 63.0371 10.2917C62.5261 10.8625 62.2708 11.5986 62.2708 12.4999C62.2708 13.4012 62.5261 14.1372 63.0371 14.708Z" fill="#11161E"/>
<path d="M74.1949 5.0191C73.6691 5.0191 73.2109 4.83133 72.8204 4.4558C72.4298 4.06524 72.2343 3.59957 72.2343 3.05879C72.2343 2.51801 72.4298 2.05985 72.8204 1.68432C73.2109 1.29375 73.6691 1.09847 74.1949 1.09847C74.7504 1.09847 75.216 1.29375 75.5917 1.68432C75.9823 2.05985 76.1777 2.51801 76.1777 3.05879C76.1777 3.59957 75.9823 4.06524 75.5917 4.4558C75.216 4.83133 74.7504 5.0191 74.1949 5.0191ZM72.6624 18.133V6.86679H75.7497V18.133H72.6624Z" fill="#11161E"/>
<path d="M82.1612 18.3808C80.674 18.3808 79.4199 17.8025 78.3984 16.6458C77.3769 15.4892 76.8659 14.1072 76.8659 12.4999C76.8659 10.8926 77.3769 9.51059 78.3984 8.35392C79.4199 7.19725 80.674 6.61889 82.1612 6.61889C82.882 6.61889 83.5283 6.76913 84.0991 7.06957C84.6698 7.37001 85.1053 7.72298 85.406 8.12858V6.86679H88.4928V18.133H85.406V16.8712C85.1053 17.2767 84.6698 17.6297 84.0991 17.9302C83.5283 18.2306 82.882 18.3808 82.1612 18.3808ZM80.7417 14.708C81.2675 15.2789 81.9583 15.5643 82.8148 15.5643C83.671 15.5643 84.3543 15.2789 84.8649 14.708C85.3907 14.1372 85.6538 13.4012 85.6538 12.4999C85.6538 11.5986 85.3907 10.8625 84.8649 10.2917C84.3543 9.72087 83.671 9.43545 82.8148 9.43545C81.9583 9.43545 81.2675 9.72087 80.7417 10.2917C80.2307 10.8625 79.9754 11.5986 79.9754 12.4999C79.9754 13.4012 80.2307 14.1372 80.7417 14.708Z" fill="#11161E"/>
<path d="M98.1185 18.4034C95.7151 18.4034 93.7169 17.6072 92.1247 16.0149C90.5324 14.4226 89.7364 12.4623 89.7364 10.134C89.7364 7.80563 90.5324 5.84531 92.1247 4.25301C93.7169 2.66072 95.7151 1.86457 98.1185 1.86457C99.936 1.86457 101.566 2.39784 103.008 3.46438C104.465 4.51588 105.419 5.89039 105.87 7.5878H102.332C102.017 6.80666 101.461 6.18327 100.664 5.71763C99.8832 5.25194 99.0345 5.0191 98.1185 5.0191C96.6161 5.0191 95.3917 5.5073 94.4457 6.48371C93.4992 7.46012 93.0262 8.67687 93.0262 10.134C93.0262 11.5911 93.4992 12.8078 94.4457 13.7842C95.3917 14.7606 96.6161 15.2488 98.1185 15.2488C99.0345 15.2488 99.8832 15.016 100.664 14.5503C101.461 14.0846 102.017 13.4613 102.332 12.6801H105.87C105.419 14.3776 104.465 15.7596 103.008 16.8261C101.566 17.8776 99.936 18.4034 98.1185 18.4034Z" fill="#11161E"/>
<path d="M111.396 18.3808C109.909 18.3808 108.655 17.8025 107.633 16.6458C106.612 15.4892 106.101 14.1072 106.101 12.4999C106.101 10.8926 106.612 9.51059 107.633 8.35392C108.655 7.19725 109.909 6.61889 111.396 6.61889C112.117 6.61889 112.763 6.76913 113.334 7.06957C113.905 7.37001 114.34 7.72298 114.641 8.12858V6.86679H117.728V18.133H114.641V16.8712C114.34 17.2767 113.905 17.6297 113.334 17.9302C112.763 18.2306 112.117 18.3808 111.396 18.3808ZM109.977 14.708C110.502 15.2789 111.193 15.5643 112.049 15.5643C112.906 15.5643 113.589 15.2789 114.1 14.708C114.626 14.1372 114.888 13.4012 114.888 12.4999C114.888 11.5986 114.626 10.8625 114.1 10.2917C113.589 9.72087 112.906 9.43545 112.049 9.43545C111.193 9.43545 110.502 9.72087 109.977 10.2917C109.466 10.8625 109.21 11.5986 109.21 12.4999C109.21 13.4012 109.466 14.1372 109.977 14.708Z" fill="#11161E"/>
<path d="M122.689 22.8422H119.602V6.86679H122.689V8.12858C122.974 7.72298 123.41 7.37001 123.996 7.06957C124.582 6.76913 125.235 6.61889 125.956 6.61889C127.443 6.61889 128.698 7.19725 129.719 8.35392C130.741 9.51059 131.251 10.8926 131.251 12.4999C131.251 14.1072 130.741 15.4892 129.719 16.6458C128.698 17.8025 127.443 18.3808 125.956 18.3808C125.235 18.3808 124.582 18.2306 123.996 17.9302C123.41 17.6297 122.974 17.2767 122.689 16.8712V22.8422ZM123.207 14.708C123.733 15.2789 124.424 15.5643 125.28 15.5643C126.137 15.5643 126.82 15.2789 127.331 14.708C127.856 14.1372 128.119 13.4012 128.119 12.4999C128.119 11.5986 127.856 10.8625 127.331 10.2917C126.82 9.72087 126.137 9.43545 125.28 9.43545C124.424 9.43545 123.733 9.72087 123.207 10.2917C122.697 10.8625 122.441 11.5986 122.441 12.4999C122.441 13.4012 122.697 14.1372 123.207 14.708Z" fill="#11161E"/>
<path d="M133.914 5.0191C133.389 5.0191 132.93 4.83133 132.54 4.4558C132.149 4.06524 131.954 3.59957 131.954 3.05879C131.954 2.51801 132.149 2.05985 132.54 1.68432C132.93 1.29375 133.389 1.09847 133.914 1.09847C134.47 1.09847 134.936 1.29375 135.312 1.68432C135.702 2.05985 135.897 2.51801 135.897 3.05879C135.897 3.59957 135.702 4.06524 135.312 4.4558C134.936 4.83133 134.47 5.0191 133.914 5.0191ZM132.382 18.133V6.86679H135.469V18.133H132.382Z" fill="#11161E"/>
<path d="M142.759 18.2682C141.498 18.2682 140.462 17.9227 139.65 17.2317C138.854 16.5257 138.456 15.5117 138.456 14.1898V9.57068H136.18V6.86679H138.456V3.73477H141.543V6.86679H144.72V9.57068H141.543V13.5814C141.543 14.2724 141.693 14.7681 141.994 15.0686C142.294 15.354 142.782 15.4967 143.458 15.4967C143.939 15.4967 144.36 15.4291 144.72 15.2939V18.0203C144.179 18.1855 143.526 18.2682 142.759 18.2682Z" fill="#11161E"/>
<path d="M150.216 18.3808C148.729 18.3808 147.475 17.8025 146.453 16.6458C145.432 15.4892 144.921 14.1072 144.921 12.4999C144.921 10.8926 145.432 9.51059 146.453 8.35392C147.475 7.19725 148.729 6.61889 150.216 6.61889C150.937 6.61889 151.583 6.76913 152.154 7.06957C152.725 7.37001 153.16 7.72298 153.461 8.12858V6.86679H156.548V18.133H153.461V16.8712C153.16 17.2767 152.725 17.6297 152.154 17.9302C151.583 18.2306 150.937 18.3808 150.216 18.3808ZM148.797 14.708C149.322 15.2789 150.013 15.5643 150.87 15.5643C151.726 15.5643 152.409 15.2789 152.92 14.708C153.446 14.1372 153.709 13.4012 153.709 12.4999C153.709 11.5986 153.446 10.8625 152.92 10.2917C152.409 9.72087 151.726 9.43545 150.87 9.43545C150.013 9.43545 149.322 9.72087 148.797 10.2917C148.286 10.8625 148.03 11.5986 148.03 12.4999C148.03 13.4012 148.286 14.1372 148.797 14.708Z" fill="#11161E"/>
<path d="M158.422 18.133V1.23367H161.509V18.133H158.422Z" fill="#11161E"/>
</g>
</g>
<defs>
<clipPath id="clip0_1_57">
<rect width="162" height="24" fill="white"/>
</clipPath>
<clipPath id="clip1_1_57">
<rect width="161.018" height="24" fill="white" transform="translate(0.49091)"/>
</clipPath>
</defs>
</svg>
